<?xml version="1.0" encoding="utf-8"?>
<!-- Generator: Adobe Illustrator 27.0.1, SVG Export Plug-In . SVG Version: 6.00 Build 0)  -->
<svg version="1.1" id="Layer_1" xmlns="http://www.w3.org/2000/svg" xmlns:xlink="http://www.w3.org/1999/xlink" x="0px"
	y="0px" viewBox="0 0 400 74.5" style="enable-background:new 0 0 400 74.5;" xml:space="preserve">
	<style type="text/css">
		.st0 {
			fill: #FFFFFF;
		}
	</style>
	<path id="S_00000121964215803395505010000013680633821930235582_" class="st0" d="M6.6,54.2c4.7,3.7,14.8,8.2,22.8,8.2
	c9.9,0,13.2-3.9,13.2-8.1c0-6.5-7.5-8-15.7-9.6S0.5,40.6,0.5,24S15.1,3.6,26.8,3.6s18.8,3.6,25.8,8.8l-7.3,9.9
	c-5.8-4.1-12.8-6.4-19.9-6.6c-5.2,0-11.6,1.6-11.6,6.9c0,6.3,8.8,8,16.1,9.5c8.3,1.7,26,3,26,21.4c0,14.1-10.7,21-26.3,21
	C15.2,74.5,7.3,69.4,0,64.1L6.6,54.2C6.6,54.2,6.6,54.2,6.6,54.2z" />
	<path id="C_00000152234578587489545650000017075036084396779434_" class="st0" d="M101.8,15.7c3.8,0,7.6,1,11,2.9
	c3.3,1.9,6.1,4.7,7.9,8l12.4-5c-4.9-9.8-15.9-18.2-31.3-18.2c-9.4,0.2-18.3,4-24.9,10.6S66.6,29.6,66.6,38.9s3.7,18.3,10.3,24.9
	c6.6,6.6,15.5,10.4,24.9,10.6c14.8,0,26.2-7.4,31.3-18.1l-12.4-5c-1.8,3.4-4.6,6.1-7.9,8.1c-3.3,1.9-7.1,2.9-11,2.8
	c-12.5,0-22.6-10.6-22.6-23.3C79.2,26.3,89.3,15.7,101.8,15.7L101.8,15.7z" />
	<path id="_x32__00000150799372206530686600000012469474758007610270_" class="st0" d="M221,64l-26.5-41.7c-0.8,1.1-1.6,2.2-2.1,2.9
	c-1.6,2.6-3.2,5.3-4.9,7.9l17.9,28.1H170L162.5,73h64.3L221,64z" />
	<path id="_x31__00000023238956425934992990000008577384259810345364_" class="st0" d="M183.4,0l-0.8,1.3
	c-7.9,12.3-15.6,24.3-24.2,37.5c-7.4,11.3-14.7,22.6-21.9,33.4l-1,1.6h16l21.3-33.4l0,0c3-4.9,6.1-9.9,9.2-14.8
	c2.8-4.5,5.7-9,8.5-13.5l0.3-0.5L183.4,0z" />
	<polygon id="L" class="st0" points="287.5,61.6 251,61.6 251,4.7 237.8,4.7 237.8,73.3 287.6,73.3 287.5,61.6 " />
	<rect id="I" x="299.7" y="4.6" class="st0" width="13.2" height="68.6" />
	<path id="O" class="st0" d="M364.1,3.3c-21.7,0-35.8,16.1-35.8,35.6h0c0,19.7,14.1,35.6,35.8,35.6c21.7,0,35.9-16,35.9-35.6
	C400,19.3,385.7,3.3,364.1,3.3z M364.1,62.3c-12.5,0.1-22.7-10.9-22.7-23.4v0v0l0,0c0-12.4,10.1-23.3,22.7-23.3
	c12.6,0,22.7,10.8,22.7,23.3S376.6,62.3,364.1,62.3z" />
</svg>